G04 DipTrace 3.1.0.1*
G04 MSP440FR2311.gto*
%MOIN*%
G04 #@! TF.FileFunction,Legend,Top*
G04 #@! TF.Part,Single*
%ADD10C,0.009843*%
%ADD36C,0.006176*%
%FSLAX26Y26*%
G04*
G70*
G90*
G75*
G01*
G04 TopSilk*
%LPD*%
X749748Y440535D2*
D10*
X718252D1*
X414390Y419000D2*
X514390D1*
X414390Y1419000D2*
Y419000D1*
Y1419000D2*
X514390D1*
Y1344000D1*
Y419000D1*
X1013610D2*
X1113610D1*
X1013610Y1419000D2*
Y419000D1*
Y1419000D2*
X1113610D1*
Y1344000D1*
Y419000D1*
X701014Y1048930D2*
Y789070D1*
X826986Y1048930D2*
Y789070D1*
X701014D2*
X826986D1*
X701014Y1048930D2*
X744311D1*
X783689D2*
X826986D1*
X744311D2*
G03X783689Y1048930I19689J-9D01*
G01*
X845700Y1167375D2*
D36*
X841898Y1165474D1*
X838051Y1161627D1*
X836150Y1157824D1*
Y1150175D1*
X838051Y1146328D1*
X841898Y1142526D1*
X845700Y1140580D1*
X851448Y1138679D1*
X861043D1*
X866747Y1140580D1*
X870594Y1142526D1*
X874396Y1146328D1*
X876342Y1150175D1*
Y1157824D1*
X874396Y1161627D1*
X870594Y1165474D1*
X866747Y1167375D1*
X843843Y1179726D2*
X841898Y1183573D1*
X836194Y1189321D1*
X876342D1*
X842236Y1088775D2*
X838433Y1086874D1*
X834586Y1083027D1*
X832685Y1079224D1*
Y1071575D1*
X834586Y1067728D1*
X838433Y1063926D1*
X842236Y1061980D1*
X847984Y1060079D1*
X857578D1*
X863282Y1061980D1*
X867129Y1063926D1*
X870932Y1067728D1*
X872877Y1071575D1*
Y1079224D1*
X870932Y1083027D1*
X867129Y1086874D1*
X863282Y1088775D1*
X842280Y1103072D2*
X840379D1*
X836532Y1104973D1*
X834631Y1106874D1*
X832729Y1110721D1*
Y1118370D1*
X834631Y1122173D1*
X836532Y1124074D1*
X840379Y1126020D1*
X844181D1*
X848028Y1124074D1*
X853732Y1120272D1*
X872877Y1101126D1*
Y1127921D1*
X845700Y1248775D2*
X841898Y1246874D1*
X838051Y1243027D1*
X836150Y1239224D1*
Y1231575D1*
X838051Y1227728D1*
X841898Y1223926D1*
X845700Y1221980D1*
X851448Y1220079D1*
X861043D1*
X866747Y1221980D1*
X870594Y1223926D1*
X874396Y1227728D1*
X876342Y1231575D1*
Y1239224D1*
X874396Y1243027D1*
X870594Y1246874D1*
X866747Y1248775D1*
X836194Y1264973D2*
Y1285976D1*
X851493Y1274524D1*
Y1280272D1*
X853394Y1284074D1*
X855295Y1285976D1*
X861043Y1287921D1*
X864846D1*
X870594Y1285976D1*
X874440Y1282173D1*
X876342Y1276425D1*
Y1270677D1*
X874440Y1264973D1*
X872495Y1263072D1*
X868692Y1261126D1*
X655736Y477189D2*
X695929D1*
Y490586D1*
X693983Y496334D1*
X690181Y500181D1*
X686334Y502082D1*
X680630Y503983D1*
X671035D1*
X665287Y502082D1*
X661485Y500181D1*
X657638Y496334D1*
X655737Y490586D1*
X655736Y477189D1*
X663430Y516335D2*
X661485Y520182D1*
X655781Y525930D1*
X695929Y525929D1*
X462989Y1477578D2*
Y1446981D1*
X461088Y1441233D1*
X459143Y1439332D1*
X455340Y1437386D1*
X451493D1*
X447691Y1439332D1*
X445789Y1441233D1*
X443844Y1446981D1*
Y1450784D1*
X475341Y1469885D2*
X479188Y1471830D1*
X484936Y1477534D1*
Y1437386D1*
X1053610Y1477578D2*
Y1446981D1*
X1051709Y1441233D1*
X1049763Y1439332D1*
X1045961Y1437386D1*
X1042114D1*
X1038311Y1439332D1*
X1036410Y1441233D1*
X1034465Y1446981D1*
Y1450784D1*
X1067907Y1467984D2*
Y1469885D1*
X1069808Y1473732D1*
X1071709Y1475633D1*
X1075556Y1477534D1*
X1083205D1*
X1087008Y1475633D1*
X1088909Y1473732D1*
X1090855Y1469885D1*
Y1466082D1*
X1088909Y1462236D1*
X1085107Y1456532D1*
X1065961Y1437386D1*
X1092756D1*
X743094Y1373118D2*
X760294D1*
X766042Y1375064D1*
X767988Y1376965D1*
X769889Y1380767D1*
Y1384614D1*
X767988Y1388417D1*
X766042Y1390362D1*
X760294Y1392264D1*
X743094D1*
Y1352071D1*
X756491Y1373118D2*
X769889Y1352071D1*
X782240Y1384570D2*
X786087Y1386515D1*
X791835Y1392219D1*
Y1352071D1*
X784882Y467565D2*
Y484765D1*
X782936Y490513D1*
X781035Y492459D1*
X777233Y494360D1*
X773386D1*
X769583Y492459D1*
X767638Y490513D1*
X765737Y484765D1*
X765736Y467565D1*
X805929D1*
X784882Y480963D2*
X805929Y494360D1*
X775331Y508657D2*
X773430D1*
X769583Y510558D1*
X767682Y512459D1*
X765781Y516306D1*
Y523955D1*
X767682Y527758D1*
X769583Y529659D1*
X773430Y531605D1*
X777233D1*
X781079Y529659D1*
X786783Y525857D1*
X805929Y506711D1*
Y533506D1*
X534000Y1362474D2*
X551244D1*
X556948Y1364376D1*
X558893Y1366321D1*
X560795Y1370124D1*
Y1375872D1*
X558893Y1379674D1*
X556948Y1381620D1*
X551244Y1383521D1*
X534000D1*
Y1343329D1*
X573146Y1375827D2*
X576993Y1377773D1*
X582741Y1383477D1*
Y1343329D1*
X596993Y1347176D2*
X595092Y1345230D1*
X596993Y1343329D1*
X598939Y1345230D1*
X596993Y1347176D1*
X611290Y1375827D2*
X615137Y1377773D1*
X620885Y1383477D1*
Y1343329D1*
X894000Y1362474D2*
X911244D1*
X916948Y1364376D1*
X918893Y1366321D1*
X920795Y1370124D1*
Y1375872D1*
X918893Y1379674D1*
X916948Y1381620D1*
X911244Y1383521D1*
X894000D1*
Y1343329D1*
X933146Y1375827D2*
X936993Y1377773D1*
X942741Y1383477D1*
Y1343329D1*
X956993Y1347176D2*
X955092Y1345230D1*
X956993Y1343329D1*
X958939Y1345230D1*
X956993Y1347176D1*
X973236Y1373926D2*
Y1375827D1*
X975137Y1379674D1*
X977038Y1381575D1*
X980885Y1383477D1*
X988534D1*
X992337Y1381575D1*
X994238Y1379674D1*
X996184Y1375827D1*
Y1372025D1*
X994238Y1368178D1*
X990436Y1362474D1*
X971290Y1343329D1*
X998085D1*
X534000Y1262474D2*
X551244D1*
X556948Y1264376D1*
X558893Y1266321D1*
X560795Y1270124D1*
Y1275872D1*
X558893Y1279674D1*
X556948Y1281620D1*
X551244Y1283521D1*
X534000D1*
Y1243329D1*
X573146Y1275827D2*
X576993Y1277773D1*
X582741Y1283477D1*
Y1243329D1*
X596993Y1247176D2*
X595092Y1245230D1*
X596993Y1243329D1*
X598939Y1245230D1*
X596993Y1247176D1*
X622786Y1283477D2*
X617038Y1281575D1*
X613192Y1275827D1*
X611290Y1266277D1*
Y1260529D1*
X613192Y1250978D1*
X617038Y1245230D1*
X622786Y1243329D1*
X626589D1*
X632337Y1245230D1*
X636140Y1250978D1*
X638085Y1260529D1*
Y1266277D1*
X636140Y1275827D1*
X632337Y1281575D1*
X626589Y1283477D1*
X622786D1*
X636140Y1275827D2*
X613192Y1250978D1*
X537397Y1183521D2*
Y1143329D1*
X524000Y1183521D2*
X550795D1*
X587995D2*
X563146D1*
Y1143329D1*
X587995D1*
X563146Y1164376D2*
X578445D1*
X627141Y1177773D2*
X623339Y1181620D1*
X617591Y1183521D1*
X609941D1*
X604193Y1181620D1*
X600347Y1177773D1*
Y1173970D1*
X602292Y1170124D1*
X604193Y1168222D1*
X607996Y1166321D1*
X619492Y1162474D1*
X623339Y1160573D1*
X625240Y1158628D1*
X627141Y1154825D1*
Y1149077D1*
X623339Y1145274D1*
X617591Y1143329D1*
X609941D1*
X604193Y1145274D1*
X600347Y1149077D1*
X652890Y1183521D2*
Y1143329D1*
X639493Y1183521D2*
X666287D1*
X534000Y1064376D2*
X551200D1*
X556948Y1066321D1*
X558893Y1068222D1*
X560795Y1072025D1*
Y1075872D1*
X558893Y1079674D1*
X556948Y1081620D1*
X551200Y1083521D1*
X534000D1*
Y1043329D1*
X547397Y1064376D2*
X560795Y1043329D1*
X599941Y1077773D2*
X596138Y1081620D1*
X590390Y1083521D1*
X582741D1*
X576993Y1081620D1*
X573146Y1077773D1*
Y1073970D1*
X575091Y1070124D1*
X576993Y1068222D1*
X580795Y1066321D1*
X592291Y1062474D1*
X596138Y1060573D1*
X598039Y1058628D1*
X599941Y1054825D1*
Y1049077D1*
X596138Y1045274D1*
X590390Y1043329D1*
X582741D1*
X576993Y1045274D1*
X573146Y1049077D1*
X625689Y1083521D2*
Y1043329D1*
X612292Y1083521D2*
X639087D1*
X534000Y1094000D2*
X651438D1*
X541200Y980625D2*
Y946181D1*
X524000Y963381D2*
X558444D1*
X570795Y983521D2*
X586094Y943329D1*
X601393Y983521D1*
X524000Y883403D2*
X546108D1*
X558459Y903521D2*
X573758Y863329D1*
X589056Y903521D1*
X524000Y772474D2*
X541244D1*
X546948Y774376D1*
X548893Y776321D1*
X550795Y780124D1*
Y785872D1*
X548893Y789674D1*
X546948Y791620D1*
X541244Y793521D1*
X524000D1*
Y753329D1*
X565091Y783926D2*
Y785827D1*
X566993Y789674D1*
X568894Y791575D1*
X572741Y793477D1*
X580390D1*
X584193Y791575D1*
X586094Y789674D1*
X588039Y785827D1*
Y782025D1*
X586094Y778178D1*
X582291Y772474D1*
X563146Y753329D1*
X589941D1*
X604193Y757176D2*
X602292Y755230D1*
X604193Y753329D1*
X606139Y755230D1*
X604193Y757176D1*
X626140Y753329D2*
X645285Y793477D1*
X618490D1*
X524000Y672474D2*
X541244D1*
X546948Y674376D1*
X548893Y676321D1*
X550795Y680124D1*
Y685872D1*
X548893Y689674D1*
X546948Y691620D1*
X541244Y693521D1*
X524000D1*
Y653329D1*
X565091Y683926D2*
Y685827D1*
X566993Y689674D1*
X568894Y691575D1*
X572741Y693477D1*
X580390D1*
X584193Y691575D1*
X586094Y689674D1*
X588039Y685827D1*
Y682025D1*
X586094Y678178D1*
X582291Y672474D1*
X563146Y653329D1*
X589941D1*
X604193Y657176D2*
X602292Y655230D1*
X604193Y653329D1*
X606139Y655230D1*
X604193Y657176D1*
X641438Y687773D2*
X639537Y691575D1*
X633789Y693477D1*
X629986D1*
X624238Y691575D1*
X620391Y685827D1*
X618490Y676277D1*
Y666726D1*
X620391Y659077D1*
X624238Y655230D1*
X629986Y653329D1*
X631888D1*
X637591Y655230D1*
X641438Y659077D1*
X643339Y664825D1*
Y666726D1*
X641438Y672474D1*
X637591Y676277D1*
X631888Y678178D1*
X629986D1*
X624238Y676277D1*
X620391Y672474D1*
X618490Y666726D1*
X524000Y572474D2*
X541244D1*
X546948Y574376D1*
X548893Y576321D1*
X550795Y580124D1*
Y585872D1*
X548893Y589674D1*
X546948Y591620D1*
X541244Y593521D1*
X524000D1*
Y553329D1*
X565091Y583926D2*
Y585827D1*
X566993Y589674D1*
X568894Y591575D1*
X572741Y593477D1*
X580390D1*
X584193Y591575D1*
X586094Y589674D1*
X588039Y585827D1*
Y582025D1*
X586094Y578178D1*
X582291Y572474D1*
X563146Y553329D1*
X589941D1*
X604193Y557176D2*
X602292Y555230D1*
X604193Y553329D1*
X606139Y555230D1*
X604193Y557176D1*
X641438Y593477D2*
X622337D1*
X620436Y576277D1*
X622337Y578178D1*
X628085Y580124D1*
X633789D1*
X639537Y578178D1*
X643384Y574376D1*
X645285Y568628D1*
Y564825D1*
X643384Y559077D1*
X639537Y555230D1*
X633789Y553329D1*
X628085D1*
X622337Y555230D1*
X620436Y557176D1*
X618490Y560978D1*
X524000Y472474D2*
X541244D1*
X546948Y474376D1*
X548893Y476321D1*
X550795Y480124D1*
Y485872D1*
X548893Y489674D1*
X546948Y491620D1*
X541244Y493521D1*
X524000D1*
Y453329D1*
X565091Y483926D2*
Y485827D1*
X566993Y489674D1*
X568894Y491575D1*
X572741Y493477D1*
X580390D1*
X584193Y491575D1*
X586094Y489674D1*
X588039Y485827D1*
Y482025D1*
X586094Y478178D1*
X582291Y472474D1*
X563146Y453329D1*
X589941D1*
X604193Y457176D2*
X602292Y455230D1*
X604193Y453329D1*
X606139Y455230D1*
X604193Y457176D1*
X637636Y453329D2*
Y493477D1*
X618490Y466726D1*
X647186D1*
X894000Y1272474D2*
X911244D1*
X916948Y1274376D1*
X918893Y1276321D1*
X920795Y1280124D1*
Y1285872D1*
X918893Y1289674D1*
X916948Y1291620D1*
X911244Y1293521D1*
X894000D1*
Y1253329D1*
X933146Y1285827D2*
X936993Y1287773D1*
X942741Y1293477D1*
Y1253329D1*
X956993Y1257176D2*
X955092Y1255230D1*
X956993Y1253329D1*
X958939Y1255230D1*
X956993Y1257176D1*
X975137Y1293477D2*
X996140D1*
X984688Y1278178D1*
X990436D1*
X994238Y1276277D1*
X996140Y1274376D1*
X998085Y1268628D1*
Y1264825D1*
X996140Y1259077D1*
X992337Y1255230D1*
X986589Y1253329D1*
X980841D1*
X975137Y1255230D1*
X973236Y1257176D1*
X971290Y1260978D1*
X894000Y1172474D2*
X911244D1*
X916948Y1174376D1*
X918893Y1176321D1*
X920795Y1180124D1*
Y1185872D1*
X918893Y1189674D1*
X916948Y1191620D1*
X911244Y1193521D1*
X894000D1*
Y1153329D1*
X933146Y1185827D2*
X936993Y1187773D1*
X942741Y1193477D1*
Y1153329D1*
X956993Y1157176D2*
X955092Y1155230D1*
X956993Y1153329D1*
X958939Y1155230D1*
X956993Y1157176D1*
X990436Y1153329D2*
Y1193477D1*
X971290Y1166726D1*
X999986D1*
X894000Y1072474D2*
X911244D1*
X916948Y1074376D1*
X918893Y1076321D1*
X920795Y1080124D1*
Y1085872D1*
X918893Y1089674D1*
X916948Y1091620D1*
X911244Y1093521D1*
X894000D1*
Y1053329D1*
X933146Y1085827D2*
X936993Y1087773D1*
X942741Y1093477D1*
Y1053329D1*
X956993Y1057176D2*
X955092Y1055230D1*
X956993Y1053329D1*
X958939Y1055230D1*
X956993Y1057176D1*
X994238Y1093477D2*
X975137D1*
X973236Y1076277D1*
X975137Y1078178D1*
X980885Y1080124D1*
X986589D1*
X992337Y1078178D1*
X996184Y1074376D1*
X998085Y1068628D1*
Y1064825D1*
X996184Y1059077D1*
X992337Y1055230D1*
X986589Y1053329D1*
X980885D1*
X975137Y1055230D1*
X973236Y1057176D1*
X971290Y1060978D1*
X934000Y985827D2*
X937847Y987773D1*
X943595Y993477D1*
Y953329D1*
X957847Y957176D2*
X955946Y955230D1*
X957847Y953329D1*
X959793Y955230D1*
X957847Y957176D1*
X995092Y987773D2*
X993191Y991575D1*
X987443Y993477D1*
X983640D1*
X977892Y991575D1*
X974046Y985827D1*
X972144Y976277D1*
Y966726D1*
X974046Y959077D1*
X977892Y955230D1*
X983640Y953329D1*
X985542D1*
X991245Y955230D1*
X995092Y959077D1*
X996993Y964825D1*
Y966726D1*
X995092Y972474D1*
X991245Y976277D1*
X985542Y978178D1*
X983640D1*
X977892Y976277D1*
X974046Y972474D1*
X972144Y966726D1*
X934000Y885827D2*
X937847Y887773D1*
X943595Y893477D1*
Y853329D1*
X957847Y857176D2*
X955946Y855230D1*
X957847Y853329D1*
X959793Y855230D1*
X957847Y857176D1*
X979794Y853329D2*
X998939Y893477D1*
X972144D1*
X925945Y783926D2*
Y785827D1*
X927847Y789674D1*
X929748Y791575D1*
X933595Y793477D1*
X941244D1*
X945047Y791575D1*
X946948Y789674D1*
X948893Y785827D1*
Y782025D1*
X946948Y778178D1*
X943145Y772474D1*
X924000Y753329D1*
X950795D1*
X965047Y757176D2*
X963146Y755230D1*
X965047Y753329D1*
X966993Y755230D1*
X965047Y757176D1*
X990840Y793477D2*
X985092Y791575D1*
X981245Y785827D1*
X979344Y776277D1*
Y770529D1*
X981245Y760978D1*
X985092Y755230D1*
X990840Y753329D1*
X994643D1*
X1000391Y755230D1*
X1004193Y760978D1*
X1006139Y770529D1*
Y776277D1*
X1004193Y785827D1*
X1000391Y791575D1*
X994643Y793477D1*
X990840D1*
X1004193Y785827D2*
X981245Y760978D1*
X925945Y683926D2*
Y685827D1*
X927847Y689674D1*
X929748Y691575D1*
X933595Y693477D1*
X941244D1*
X945047Y691575D1*
X946948Y689674D1*
X948893Y685827D1*
Y682025D1*
X946948Y678178D1*
X943145Y672474D1*
X924000Y653329D1*
X950795D1*
X965047Y657176D2*
X963146Y655230D1*
X965047Y653329D1*
X966993Y655230D1*
X965047Y657176D1*
X979344Y685827D2*
X983191Y687773D1*
X988939Y693477D1*
Y653329D1*
X925945Y583926D2*
Y585827D1*
X927847Y589674D1*
X929748Y591575D1*
X933595Y593477D1*
X941244D1*
X945047Y591575D1*
X946948Y589674D1*
X948893Y585827D1*
Y582025D1*
X946948Y578178D1*
X943145Y572474D1*
X924000Y553329D1*
X950795D1*
X965047Y557176D2*
X963146Y555230D1*
X965047Y553329D1*
X966993Y555230D1*
X965047Y557176D1*
X981290Y583926D2*
Y585827D1*
X983191Y589674D1*
X985092Y591575D1*
X988939Y593477D1*
X996588D1*
X1000391Y591575D1*
X1002292Y589674D1*
X1004238Y585827D1*
Y582025D1*
X1002292Y578178D1*
X998490Y572474D1*
X979344Y553329D1*
X1006139D1*
X925945Y493926D2*
Y495827D1*
X927847Y499674D1*
X929748Y501575D1*
X933595Y503477D1*
X941244D1*
X945047Y501575D1*
X946948Y499674D1*
X948893Y495827D1*
Y492025D1*
X946948Y488178D1*
X943145Y482474D1*
X924000Y463329D1*
X950795D1*
X965047Y467176D2*
X963146Y465230D1*
X965047Y463329D1*
X966993Y465230D1*
X965047Y467176D1*
X983191Y503477D2*
X1004193D1*
X992741Y488178D1*
X998490D1*
X1002292Y486277D1*
X1004193Y484376D1*
X1006139Y478628D1*
Y474825D1*
X1004193Y469077D1*
X1000391Y465230D1*
X994643Y463329D1*
X988895D1*
X983191Y465230D1*
X981290Y467176D1*
X979344Y470978D1*
X734000Y773521D2*
Y744825D1*
X735901Y739077D1*
X739748Y735274D1*
X745496Y733329D1*
X749299D1*
X755047Y735274D1*
X758893Y739077D1*
X760795Y744825D1*
Y773521D1*
X773146Y765827D2*
X776993Y767773D1*
X782741Y773477D1*
Y733329D1*
M02*
