G04 DipTrace 3.1.0.1*
G04 MSP440FR2311.gbl*
%MOIN*%
G04 #@! TF.FileFunction,Copper,L2,Bot*
G04 #@! TF.Part,Single*
G04 #@! TA.AperFunction,Conductor*
%ADD13C,0.007992*%
G04 #@! TA.AperFunction,CopperBalancing*
%ADD14C,0.025*%
G04 #@! TA.AperFunction,ComponentPad*
%ADD17R,0.059055X0.059055*%
%ADD18C,0.059055*%
G04 #@! TA.AperFunction,ViaPad*
%ADD20C,0.04*%
%FSLAX26Y26*%
G04*
G70*
G90*
G75*
G01*
G04 Bottom*
%LPD*%
X874000Y624000D2*
D13*
Y754000D1*
X854000Y774000D1*
Y764000D1*
X884000Y1204000D2*
Y1174000D1*
X864000Y1154000D1*
X874000Y1304000D2*
Y1284000D1*
X854000Y1264000D1*
Y1234000D1*
D20*
X874000Y624000D3*
X884000Y1204000D3*
X874000Y1304000D3*
X522915Y1366631D2*
D14*
X1005079D1*
X522915Y1341762D2*
X1005079D1*
X522915Y1316894D2*
X1005079D1*
X517963Y1292025D2*
X1010031D1*
X522879Y1267156D2*
X1005114D1*
X516133Y1242287D2*
X1011861D1*
X495070Y1217419D2*
X1032925D1*
X517713Y1192550D2*
X1010282D1*
X522915Y1167681D2*
X1005114D1*
X516420Y1142812D2*
X1011573D1*
X494172Y1117944D2*
X1033858D1*
X517496Y1093075D2*
X1010533D1*
X522915Y1068206D2*
X1005079D1*
X516707Y1043337D2*
X1011323D1*
X493203Y1018469D2*
X1034791D1*
X517245Y993600D2*
X1010785D1*
X522915Y968731D2*
X1005079D1*
X516958Y943862D2*
X1011035D1*
X492163Y918993D2*
X1035832D1*
X439018Y894125D2*
X1011035D1*
X439018Y869256D2*
X1005079D1*
X439018Y844387D2*
X1010785D1*
X491122Y819518D2*
X1034827D1*
X516707Y794650D2*
X1011287D1*
X522915Y769781D2*
X1005079D1*
X517461Y744912D2*
X1010533D1*
X494136Y720043D2*
X1033858D1*
X516420Y695175D2*
X1011573D1*
X522915Y670306D2*
X1005114D1*
X517713Y645437D2*
X1010282D1*
X495070Y620568D2*
X1032925D1*
X516133Y595699D2*
X1011861D1*
X522879Y570831D2*
X1005114D1*
X517963Y545962D2*
X1010031D1*
X495930Y521093D2*
X1032064D1*
X515846Y496224D2*
X1012148D1*
X522879Y471356D2*
X1005114D1*
X518178Y446487D2*
X1009815D1*
X520417Y1391476D2*
Y1312972D1*
X499138D1*
X504008Y1308618D1*
X509717Y1301932D1*
X514311Y1294436D1*
X517675Y1286314D1*
X519727Y1277765D1*
X520417Y1269000D1*
X519727Y1260235D1*
X517675Y1251686D1*
X514311Y1243564D1*
X509717Y1236068D1*
X504008Y1229382D1*
X497322Y1223673D1*
X489654Y1219000D1*
X497322Y1214327D1*
X504008Y1208618D1*
X509717Y1201932D1*
X514311Y1194436D1*
X517675Y1186314D1*
X519727Y1177765D1*
X520417Y1169000D1*
X519727Y1160235D1*
X517675Y1151686D1*
X514311Y1143564D1*
X509717Y1136068D1*
X504008Y1129382D1*
X497322Y1123673D1*
X489654Y1119000D1*
X497322Y1114327D1*
X504008Y1108618D1*
X509717Y1101932D1*
X514311Y1094436D1*
X517675Y1086314D1*
X519727Y1077765D1*
X520417Y1069000D1*
X519727Y1060235D1*
X517675Y1051686D1*
X514311Y1043564D1*
X509717Y1036068D1*
X504008Y1029382D1*
X497322Y1023673D1*
X489654Y1019000D1*
X497322Y1014327D1*
X504008Y1008618D1*
X509717Y1001932D1*
X514311Y994436D1*
X517675Y986314D1*
X519727Y977765D1*
X520417Y969000D1*
X519727Y960235D1*
X517675Y951686D1*
X514311Y943564D1*
X509717Y936068D1*
X504008Y929382D1*
X497322Y923673D1*
X489825Y919079D1*
X481703Y915715D1*
X473155Y913663D1*
X464390Y912972D1*
X455625Y913663D1*
X447076Y915715D1*
X438954Y919079D1*
X436509Y920448D1*
X436500Y817617D1*
X442949Y820762D1*
X451311Y823479D1*
X459993Y824854D1*
X468786D1*
X477469Y823479D1*
X485831Y820762D1*
X493664Y816772D1*
X500777Y811604D1*
X506993Y805387D1*
X512161Y798274D1*
X516152Y790441D1*
X518869Y782079D1*
X520244Y773396D1*
Y764604D1*
X518869Y755921D1*
X516152Y747559D1*
X512161Y739726D1*
X506993Y732613D1*
X500777Y726396D1*
X493664Y721228D1*
X489825Y718921D1*
X497322Y714327D1*
X504008Y708618D1*
X509717Y701932D1*
X514311Y694436D1*
X517675Y686314D1*
X519727Y677765D1*
X520417Y669000D1*
X519727Y660235D1*
X517675Y651686D1*
X514311Y643564D1*
X509717Y636068D1*
X504008Y629382D1*
X497322Y623673D1*
X489654Y619000D1*
X497322Y614327D1*
X504008Y608618D1*
X509717Y601932D1*
X514311Y594436D1*
X517675Y586314D1*
X519727Y577765D1*
X520417Y569000D1*
X519727Y560235D1*
X517675Y551686D1*
X514311Y543564D1*
X509717Y536068D1*
X504008Y529382D1*
X497322Y523673D1*
X489654Y519000D1*
X497322Y514327D1*
X504008Y508618D1*
X509717Y501932D1*
X514311Y494436D1*
X517675Y486314D1*
X519727Y477765D1*
X520417Y469000D1*
X519727Y460235D1*
X517675Y451686D1*
X514311Y443564D1*
X510013Y436510D1*
X1017991Y436500D1*
X1013689Y443564D1*
X1010325Y451686D1*
X1008273Y460235D1*
X1007583Y469000D1*
X1008273Y477765D1*
X1010325Y486314D1*
X1013689Y494436D1*
X1018283Y501932D1*
X1023992Y508618D1*
X1030678Y514327D1*
X1038346Y519000D1*
X1030678Y523673D1*
X1023992Y529382D1*
X1018283Y536068D1*
X1013689Y543564D1*
X1010325Y551686D1*
X1008273Y560235D1*
X1007583Y569000D1*
X1008273Y577765D1*
X1010325Y586314D1*
X1013689Y594436D1*
X1018283Y601932D1*
X1023992Y608618D1*
X1030678Y614327D1*
X1038346Y619000D1*
X1030678Y623673D1*
X1023992Y629382D1*
X1018283Y636068D1*
X1013689Y643564D1*
X1010325Y651686D1*
X1008273Y660235D1*
X1007583Y669000D1*
X1008273Y677765D1*
X1010325Y686314D1*
X1013689Y694436D1*
X1018283Y701932D1*
X1023992Y708618D1*
X1030678Y714327D1*
X1038346Y719000D1*
X1030678Y723673D1*
X1023992Y729382D1*
X1018283Y736068D1*
X1013689Y743564D1*
X1010325Y751686D1*
X1008273Y760235D1*
X1007583Y769000D1*
X1008273Y777765D1*
X1010325Y786314D1*
X1013689Y794436D1*
X1018283Y801932D1*
X1023992Y808618D1*
X1030678Y814327D1*
X1038346Y819000D1*
X1030678Y823673D1*
X1023992Y829382D1*
X1018283Y836068D1*
X1013689Y843564D1*
X1010325Y851686D1*
X1008273Y860235D1*
X1007583Y869000D1*
X1008273Y877765D1*
X1010325Y886314D1*
X1013689Y894436D1*
X1018283Y901932D1*
X1023992Y908618D1*
X1030678Y914327D1*
X1038346Y919000D1*
X1030678Y923673D1*
X1023992Y929382D1*
X1018283Y936068D1*
X1013689Y943564D1*
X1010325Y951686D1*
X1008273Y960235D1*
X1007583Y969000D1*
X1008273Y977765D1*
X1010325Y986314D1*
X1013689Y994436D1*
X1018283Y1001932D1*
X1023992Y1008618D1*
X1030678Y1014327D1*
X1038346Y1019000D1*
X1030678Y1023673D1*
X1023992Y1029382D1*
X1018283Y1036068D1*
X1013689Y1043564D1*
X1010325Y1051686D1*
X1008273Y1060235D1*
X1007583Y1069000D1*
X1008273Y1077765D1*
X1010325Y1086314D1*
X1013689Y1094436D1*
X1018283Y1101932D1*
X1023992Y1108618D1*
X1030678Y1114327D1*
X1038346Y1119000D1*
X1030678Y1123673D1*
X1023992Y1129382D1*
X1018283Y1136068D1*
X1013689Y1143564D1*
X1010325Y1151686D1*
X1008273Y1160235D1*
X1007583Y1169000D1*
X1008273Y1177765D1*
X1010325Y1186314D1*
X1013689Y1194436D1*
X1018283Y1201932D1*
X1023992Y1208618D1*
X1030678Y1214327D1*
X1038346Y1219000D1*
X1030678Y1223673D1*
X1023992Y1229382D1*
X1018283Y1236068D1*
X1013689Y1243564D1*
X1010325Y1251686D1*
X1008273Y1260235D1*
X1007583Y1269000D1*
X1008273Y1277765D1*
X1010325Y1286314D1*
X1013689Y1294436D1*
X1018283Y1301932D1*
X1023992Y1308618D1*
X1028965Y1312976D1*
X1007583Y1312972D1*
Y1391522D1*
X520416Y1391500D1*
D17*
X464390Y1369000D3*
D18*
Y1269000D3*
Y1169000D3*
Y1069000D3*
Y969000D3*
Y869000D3*
Y769000D3*
Y669000D3*
Y569000D3*
Y469000D3*
D17*
X1063610Y1369000D3*
D18*
Y1269000D3*
Y1169000D3*
Y1069000D3*
Y969000D3*
Y869000D3*
Y769000D3*
Y669000D3*
Y569000D3*
Y469000D3*
M02*
