M48
INCH
T01C0.019
T02C0.0354
%
T01
X+008740Y+006240
X+008840Y+012040
X+008740Y+013040
T02
X+004644Y+013690
X+004644Y+012690
X+004644Y+011690
X+004644Y+010690
X+004644Y+009690
X+004644Y+008690
X+004644Y+007690
X+004644Y+006690
X+004644Y+005690
X+004644Y+004690
X+010636Y+004690
X+010636Y+005690
X+010636Y+006690
X+010636Y+007690
X+010636Y+008690
X+010636Y+009690
X+010636Y+010690
X+010636Y+011690
X+010636Y+012690
X+010636Y+013690
T00
M30
